# xmcd
#
# Track frame offsets: 
#        150
#        22245
#        44045
#        65077
#        83972
#        101795
#        122640
#        147715
#        163030
#        188895
#        214042
#        234082
#        251682
#        272482
#        292627
#
# Disc length: 4165 seconds
#
# Revision: 0
# Processed by: cddbd v1.5.2PL0 Copyright (c) Steve Scherf et al.
# Submitted via: ExactAudioCopy v0.95a5
#
DISCID=e210430f
DTITLE=whitney - love, whitney
DYEAR=2004
DGENRE=pop
TTITLE0=until you come back
TTITLE1=i have noting
TTITLE2=why does it hurt so bad
TTITLE3=you give good love
TTITLE4=all the man that i need
TTITLE5=where do broken hearts go
TTITLE6=just the lonely talking again
TTITLE7=exhale(shoop shoop)
TTITLE8=miracle
TTITLE9=for the love of you
TTITLE10=run to you
TTITLE11=i believe in you and me
TTITLE12=didn't we almost have it all
TTITLE13=all at once
TTITLE14=i will always love you
EXTD=
EXTT0=
EXTT1=
EXTT2=
EXTT3=
EXTT4=
EXTT5=
EXTT6=
EXTT7=
EXTT8=
EXTT9=
EXTT10=
EXTT11=
EXTT12=
EXTT13=
EXTT14=
PLAYORDER=
